<?xml version="1.0" encoding="UTF-8" standalone="no"?>
<svg width="58px" height="59px" viewBox="0 0 58 59" version="1.1" xmlns="http://www.w3.org/2000/svg" xmlns:xlink="http://www.w3.org/1999/xlink" xmlns:sketch="http://www.bohemiancoding.com/sketch/ns">
    <!-- Generator: Sketch 3.5.1 (25234) - http://www.bohemiancoding.com/sketch -->
    <title>116 - Chart Presentation (Flat)</title>
    <desc>Created with Sketch.</desc>
    <defs></defs>
    <g id="Page-1" stroke="none" stroke-width="1" fill="none" fill-rule="evenodd" sketch:type="MSPage">
        <g id="Icons" sketch:type="MSArtboardGroup" transform="translate(-601.000000, -958.000000)">
            <g id="116---Chart-Presentation-(Flat)" sketch:type="MSLayerGroup" transform="translate(601.000000, 958.000000)">
                <path d="M0,0 L58,0 L58,6 L0,6 L0,0 Z" id="Fill-665" fill="#556080" sketch:type="MSShapeGroup"></path>
                <path d="M2,6 L56,6 L56,48 L2,48 L2,6 Z" id="Fill-666" fill="#ECF0F1" sketch:type="MSShapeGroup"></path>
                <path d="M9,18 L18,18 M9,15 L14,15 M9,21 L18,21" id="Stroke-820" stroke="#8697CB" stroke-width="2" stroke-linecap="round" sketch:type="MSShapeGroup"></path>
                <path d="M11,40 L23.6,27.4 M23.6,27.4 L32.6,36.4 M32.6,36.4 L47,22 M47,22 L47,29 M47,22 L40,22" id="Stroke-821" stroke="#659C35" stroke-width="2" stroke-linecap="round" sketch:type="MSShapeGroup"></path>
                <path d="M0,48 L58,48 L0,48 Z" id="Path" stroke="#556080" stroke-width="2" stroke-linecap="round" sketch:type="MSShapeGroup"></path>
                <path d="M29,48 L29,51 L29,48 Z" id="Path" stroke="#556080" stroke-width="2" stroke-linecap="round" sketch:type="MSShapeGroup"></path>
                <path d="M32,55 C32,56.657 30.657,58 29,58 C27.343,58 26,56.657 26,55 C26,53.343 27.343,52 29,52 C30.657,52 32,53.343 32,55 L32,55 Z" id="Path" stroke="#556080" stroke-width="2" stroke-linecap="round" sketch:type="MSShapeGroup"></path>
            </g>
        </g>
    </g>
</svg>