<?xml version="1.0" encoding="UTF-8" standalone="no"?>
<svg width="46px" height="60px" viewBox="0 0 46 60" version="1.1" xmlns="http://www.w3.org/2000/svg" xmlns:xlink="http://www.w3.org/1999/xlink" xmlns:sketch="http://www.bohemiancoding.com/sketch/ns">
    <!-- Generator: Sketch 3.5.1 (25234) - http://www.bohemiancoding.com/sketch -->
    <title>11 - Antivirus (Flat)</title>
    <desc>Created with Sketch.</desc>
    <defs></defs>
    <g id="Page-1" stroke="none" stroke-width="1" fill="none" fill-rule="evenodd" sketch:type="MSPage">
        <g id="Icons" sketch:type="MSArtboardGroup" transform="translate(-1208.000000, -717.000000)">
            <g id="11---Antivirus-(Flat)" sketch:type="MSLayerGroup" transform="translate(1208.000000, 717.000000)">
                <path d="M23,1 C23,1 16.333,9 1,9 L1,28.085 C1,38.051 5.328,47.662 13.164,53.82 C15.938,56 19.208,57.875 23,59 C26.792,57.875 30.063,56 32.836,53.82 C40.672,47.662 45,38.051 45,28.085 L45,9 C29.667,9 23,1 23,1" id="Fill-101" fill="#26B99A" sketch:type="MSShapeGroup"></path>
                <path d="M1,9 L1,28.085 C1,38.051 5.328,47.662 13.164,53.82 C15.938,56 19.208,57.875 23,59 L23,1 C23,1 16.333,9 1,9" id="Fill-521" fill="#13A085" sketch:type="MSShapeGroup"></path>
                <path d="M23,60 C22.904,60 22.809,59.986 22.716,59.959 C19.135,58.896 15.713,57.096 12.546,54.606 C4.69,48.433 0,38.518 0,28.085 L0,9 C0,8.447 0.447,8 1,8 C15.694,8 22.168,0.437 22.231,0.359 C22.612,-0.096 23.388,-0.096 23.769,0.359 C23.831,0.435 30.372,8 45,8 C45.553,8 46,8.447 46,9 L46,28.085 C46,38.518 41.31,48.433 33.454,54.606 C30.287,57.096 26.865,58.896 23.284,59.959 C23.191,59.986 23.096,60 23,60 L23,60 Z M2,9.989 L2,28.085 C2,37.909 6.404,47.236 13.782,53.034 C16.665,55.3 19.765,56.955 23,57.955 C26.235,56.955 29.335,55.3 32.218,53.034 C39.596,47.236 44,37.909 44,28.085 L44,9.989 C31.758,9.717 25.135,4.492 23,2.443 C20.865,4.492 14.242,9.717 2,9.989 L2,9.989 Z" id="Fill-522" fill="#556080" sketch:type="MSShapeGroup"></path>
            </g>
        </g>
    </g>
</svg>