<?xml version="1.0" encoding="UTF-8" standalone="no"?>
<svg width="49px" height="58px" viewBox="0 0 49 58" version="1.1" xmlns="http://www.w3.org/2000/svg" xmlns:xlink="http://www.w3.org/1999/xlink">
    <!-- Generator: Sketch 3.7.1 (28215) - http://www.bohemiancoding.com/sketch -->
    <title>122 -Press Phone- (Flat)</title>
    <desc>Created with Sketch.</desc>
    <defs></defs>
    <g id="Page-1" stroke="none" stroke-width="1" fill="none" fill-rule="evenodd">
        <g id="Icons" transform="translate(-609.000000, -851.000000)">
            <g id="122--Press-Phone--(Flat)" transform="translate(610.000000, 851.000000)">
                <path d="M25,51.3464 L25,50.0004 L1,50.0004 L1,55.0004 C1,56.6564 2.343,58.0004 4,58.0004 L30,58.0004 C30.236,58.0004 30.464,57.9664 30.684,57.9144 C27.412,57.4334 25,54.7864 25,51.3464" id="Fill-331" fill="#38454F"></path>
                <path d="M21.5,54 C21.5,56.209 19.709,58 17.5,58 C15.291,58 13.5,56.209 13.5,54 C13.5,51.791 15.291,50 17.5,50 C19.709,50 21.5,51.791 21.5,54" id="Fill-333" fill="#333F45"></path>
                <path id="Fill-335" fill="#F0C41A"></path>
                <path d="M25,49.0381 C22.642,46.5471 20.263,42.9021 20.263,42.9021 C17.763,38.4031 13.325,33.9031 13.361,33.6991 C13.396,33.4951 13.169,32.8001 14.128,32.1651 C14.405,31.9811 14.698,31.8101 15.016,31.6901 C17.476,30.7631 21.113,32.0001 22.684,34.7071 L24,37.0001 L24,16.8261 C24,15.1321 25.306,14.0001 27,14.0001 L27,14.0001 L27,14.0001 C28.694,14.0001 30,15.1321 30,16.8261 L30,26.0301 C30,24.3351 31.306,23.0001 33,23.0001 L33,23.0001 L33,23.0001 L33,6.0001 L1,6.0001 L1,50.0001 L25,50.0001 L25,49.0381 Z" id="Fill-337" fill="#F0C41A"></path>
                <path d="M48,37 L48,33 C48,31.343 46.657,30 45,30 C43.343,30 42,31.343 42,33 L42,37 L42,33.5 L42,33 L42,29 C42,27.343 40.657,26 39,26 C37.343,26 36,27.343 36,29 L36,26.03 C36,24.335 34.694,23 33,23 L33,23 C31.306,23 30,24.335 30,26.03 L30,29 L30,16.826 C30,15.132 28.694,14 27,14 L27,14 C25.306,14 24,15.132 24,16.826 L24,37 L22.684,34.707 C21.113,32 17.476,30.763 15.016,31.69 C14.698,31.81 14.405,31.982 14.128,32.165 C13.169,32.8 13.396,33.495 13.361,33.699 C13.325,33.903 17.763,38.403 20.263,42.903 C20.263,42.903 22.642,46.547 25,49.038 L25,51.346 C25,55.154 27.951,58 31.759,58 L39.436,58 C42.421,58 45.519,55.728 46.172,52.817 C46.334,52.098 46.623,51.129 47.106,50.572 C47.774,49.801 48,47.864 48,45.203 L48,37 Z" id="Fill-339" fill="#FDC794"></path>
                <path d="M33,6 L1,6 L1,3 C1,1.343 2.343,0 4,0 L30,0 C31.657,0 33,1.343 33,3 L33,6 Z" id="Fill-931" fill="#333F45"></path>
                <path d="M0,9 L0,10" id="Stroke-933" stroke="#D4DBDF" stroke-width="2" stroke-linecap="round"></path>
                <path d="M0,13 L0,14" id="Stroke-935" stroke="#D4DBDF" stroke-width="2" stroke-linecap="round"></path>
                <path d="M0,17 L0,18" id="Stroke-937" stroke="#D4DBDF" stroke-width="2" stroke-linecap="round"></path>
                <path d="M29,52 C26.963,51.688 27.11,50.119 26,49" id="Stroke-939" stroke="#F9A671" stroke-width="2" stroke-linecap="round" stroke-linejoin="round"></path>
                <path d="M25,39 L24,37" id="Stroke-941" stroke="#F9A671" stroke-width="2" stroke-linecap="round" stroke-linejoin="round"></path>
                <path d="M30,29 L30,37.333" id="Stroke-943" stroke="#F9A671" stroke-width="2" stroke-linecap="round" stroke-linejoin="round"></path>
                <path d="M36,29 L36,36.333" id="Stroke-945" stroke="#F9A671" stroke-width="2" stroke-linecap="round" stroke-linejoin="round"></path>
                <path d="M42,33 L42,37" id="Stroke-947" stroke="#F9A671" stroke-width="2" stroke-linecap="round" stroke-linejoin="round"></path>
                <path d="M46,50 C45.363,51.063 45.383,50.96 43.538,51.439" id="Stroke-949" stroke="#F9A671" stroke-width="2" stroke-linecap="round" stroke-linejoin="round"></path>
                <path d="M18.8488,15 L15.1508,15 C15.0678,15 14.9998,14.932 14.9998,14.849 L14.9998,11.151 C14.9998,11.068 15.0678,11 15.1508,11 L18.8488,11 C18.9318,11 18.9998,11.068 18.9998,11.151 L18.9998,14.849 C18.9998,14.932 18.9318,15 18.8488,15" id="Fill-1009" fill="#A4E869"></path>
                <path d="M9.8488,15 L6.1508,15 C6.0678,15 5.9998,14.932 5.9998,14.849 L5.9998,11.151 C5.9998,11.068 6.0678,11 6.1508,11 L9.8488,11 C9.9318,11 9.9998,11.068 9.9998,11.151 L9.9998,14.849 C9.9998,14.932 9.9318,15 9.8488,15" id="Fill-1010" fill="#E64C3C"></path>
                <path d="M24.1512,15 L24.6682,15 C25.2122,14.375 26.0382,14 27.0002,14 L27.0002,14 L27.0002,14 C27.3552,14 27.6872,14.06 28.0002,14.155 L28.0002,11.151 C28.0002,11.068 27.9322,11 27.8492,11 L24.1512,11 C24.0682,11 24.0002,11.068 24.0002,11.151 L24.0002,14.849 C24.0002,14.932 24.0682,15 24.1512,15" id="Fill-1011" fill="#3B97D3"></path>
                <path d="M18.8488,24 L15.1508,24 C15.0678,24 14.9998,23.932 14.9998,23.849 L14.9998,20.151 C14.9998,20.068 15.0678,20 15.1508,20 L18.8488,20 C18.9318,20 18.9998,20.068 18.9998,20.151 L18.9998,23.849 C18.9998,23.932 18.9318,24 18.8488,24" id="Fill-2179" fill="#E64C3C"></path>
                <path d="M9.8488,24 L6.1508,24 C6.0678,24 5.9998,23.932 5.9998,23.849 L5.9998,20.151 C5.9998,20.068 6.0678,20 6.1508,20 L9.8488,20 C9.9318,20 9.9998,20.068 9.9998,20.151 L9.9998,23.849 C9.9998,23.932 9.9318,24 9.8488,24" id="Fill-2180" fill="#3B97D3"></path>
                <path d="M9.8488,33 L6.1508,33 C6.0678,33 5.9998,32.932 5.9998,32.849 L5.9998,29.151 C5.9998,29.068 6.0678,29 6.1508,29 L9.8488,29 C9.9318,29 9.9998,29.068 9.9998,29.151 L9.9998,32.849 C9.9998,32.932 9.9318,33 9.8488,33" id="Fill-2181" fill="#A4E869"></path>
            </g>
        </g>
    </g>
</svg>