<?xml version="1.0" encoding="UTF-8" standalone="no"?>
<svg width="47px" height="58px" viewBox="0 0 47 58" version="1.1" xmlns="http://www.w3.org/2000/svg" xmlns:xlink="http://www.w3.org/1999/xlink" xmlns:sketch="http://www.bohemiancoding.com/sketch/ns">
    <!-- Generator: Sketch 3.5.1 (25234) - http://www.bohemiancoding.com/sketch -->
    <title>129 - Money Power (Flat)</title>
    <desc>Created with Sketch.</desc>
    <defs></defs>
    <g id="Page-1" stroke="none" stroke-width="1" fill="none" fill-rule="evenodd" sketch:type="MSPage">
        <g id="Icons" sketch:type="MSArtboardGroup" transform="translate(-245.000000, -838.000000)">
            <g id="129---Money-Power-(Flat)" sketch:type="MSLayerGroup" transform="translate(244.000000, 838.000000)">
                <path d="M30.232,47 L16.232,33 L11.686,31.95 C11.108,32.232 9.531,31.211 10.136,31.731 L21.762,43.552 C21.836,43.625 21.922,43.679 22,43.745 L22,47 L30.232,47" id="Fill-125" fill="#FAC176" sketch:type="MSShapeGroup"></path>
                <path d="M31.092,47 L42,47 L42,42.49 C43.819,41.121 45,38.951 45,36.5 C45,35.492 44.795,34.535 44.433,33.659 L31.092,47" id="Fill-126" fill="#FAC176" sketch:type="MSShapeGroup"></path>
                <path d="M17.934,0.761 L0.963,17.732 L10.155,26.923 C10.778,26.356 11.596,26 12.5,26 L22.5,26 C24.425,26 26,27.575 26,29.5 C26,31.425 24.425,33 22.5,33 L16.232,33 L30.662,47.43 L47.632,30.46 L17.934,0.761" id="Fill-235" fill="#E8E8D3" sketch:type="MSShapeGroup"></path>
                <path d="M20,47 L44,47 L44,58 L20,58 L20,47 Z" id="Fill-688" fill="#ECF0F1" sketch:type="MSShapeGroup"></path>
                <path d="M36,58 L20,58 L20,47 L29.426,47 C33.056,47 36,49.943 36,53.575 L36,58" id="Fill-689" fill="#BDC3C7" sketch:type="MSShapeGroup"></path>
                <path d="M32,52.5 C32,53.881 30.881,55 29.5,55 C28.119,55 27,53.881 27,52.5 C27,51.119 28.119,50 29.5,50 C30.881,50 32,51.119 32,52.5" id="Fill-690" fill="#556080" sketch:type="MSShapeGroup"></path>
                <path d="M27.904,10.702 C29.137,10.161 30,8.933 30,7.5 C30,5.567 28.433,4 26.5,4 C25.067,4 23.839,4.863 23.298,6.096 L27.904,10.702" id="Fill-691" fill="#FAC176" sketch:type="MSShapeGroup"></path>
                <path d="M32.904,15.702 C34.137,15.161 35,13.933 35,12.5 C35,10.567 33.433,9 31.5,9 C30.067,9 28.839,9.863 28.298,11.096 L32.904,15.702" id="Fill-692" fill="#FAC176" sketch:type="MSShapeGroup"></path>
                <path d="M37.904,20.702 C39.137,20.161 40,18.933 40,17.5 C40,15.567 38.433,14 36.5,14 C35.067,14 33.839,14.863 33.298,16.096 L37.904,20.702" id="Fill-693" fill="#FAC176" sketch:type="MSShapeGroup"></path>
                <path d="M42.904,25.702 C44.137,25.161 45,23.933 45,22.5 C45,20.567 43.433,19 41.5,19 C40.067,19 38.839,19.863 38.298,21.096 L42.904,25.702" id="Fill-694" fill="#FAC176" sketch:type="MSShapeGroup"></path>
                <path d="M22.5,33 L12.5,33 C10.575,33 9,31.425 9,29.5 C9,27.575 10.575,26 12.5,26 L22.5,26 C24.425,26 26,27.575 26,29.5 C26,31.425 24.425,33 22.5,33" id="Fill-695" fill="#FDD7AD" sketch:type="MSShapeGroup"></path>
                <path d="M24.298,11.368 L20.762,7.832 L20.055,8.539 C18.921,9.672 16.946,9.672 15.813,8.539 L15.105,7.832 L8.035,14.903 L8.742,15.61 C9.911,16.78 9.911,18.684 8.742,19.854 L8.035,20.561 L11.57,24.096 C11.765,24.291 12.021,24.389 12.277,24.389 C12.533,24.389 12.789,24.291 12.984,24.096 C13.375,23.705 13.375,23.072 12.984,22.682 L10.792,20.489 C11.893,18.824 11.893,16.64 10.792,14.975 L15.176,10.59 C16.797,11.668 19.069,11.668 20.692,10.59 L22.884,12.782 C23.274,13.173 23.907,13.173 24.298,12.782 C24.689,12.392 24.689,11.759 24.298,11.368" id="Fill-696" fill="#6D8C60" sketch:type="MSShapeGroup"></path>
                <path d="M40.561,27.631 L37.026,24.096 C36.635,23.705 36.002,23.705 35.612,24.096 C35.221,24.486 35.221,25.119 35.612,25.51 L37.804,27.702 C36.703,29.367 36.703,31.552 37.804,33.217 L33.42,37.602 C31.797,36.523 29.525,36.523 27.904,37.602 L25.712,35.409 C25.321,35.019 24.689,35.019 24.298,35.409 C23.907,35.8 23.907,36.433 24.298,36.823 L27.833,40.359 L28.54,39.652 C29.675,38.519 31.65,38.521 32.783,39.652 L33.49,40.359 L40.561,33.288 L39.854,32.581 C38.685,31.411 38.685,29.508 39.854,28.338 L40.561,27.631" id="Fill-697" fill="#6D8C60" sketch:type="MSShapeGroup"></path>
                <path d="M42.683,29.753 C42.292,29.362 41.659,29.362 41.268,29.753 C40.878,30.143 40.878,30.776 41.268,31.167 C41.659,31.557 42.292,31.557 42.683,31.167 C43.073,30.776 43.073,30.143 42.683,29.753" id="Fill-698" fill="#6D8C60" sketch:type="MSShapeGroup"></path>
                <path d="M29.955,41.066 C29.564,41.457 29.564,42.09 29.955,42.48 C30.345,42.871 30.978,42.871 31.369,42.48 C31.759,42.09 31.759,41.457 31.369,41.066 C30.978,40.676 30.345,40.676 29.955,41.066" id="Fill-699" fill="#6D8C60" sketch:type="MSShapeGroup"></path>
                <path d="M18.641,7.125 C19.031,6.735 19.031,6.101 18.641,5.711 C18.25,5.32 17.617,5.32 17.227,5.711 C16.836,6.101 16.836,6.735 17.227,7.125 C17.617,7.516 18.25,7.516 18.641,7.125" id="Fill-700" fill="#6D8C60" sketch:type="MSShapeGroup"></path>
                <path d="M5.913,17.025 C5.523,17.415 5.523,18.048 5.913,18.439 C6.303,18.829 6.937,18.829 7.327,18.439 C7.718,18.048 7.718,17.415 7.327,17.025 C6.937,16.634 6.303,16.634 5.913,17.025" id="Fill-701" fill="#6D8C60" sketch:type="MSShapeGroup"></path>
                <path d="M30.662,17.732 C27.147,14.217 21.448,14.217 17.934,17.732 C15.689,19.977 14.885,23.111 15.508,26 L22.5,26 C24.425,26 26,27.575 26,29.5 C26,31.313 24.598,32.798 22.827,32.967 C25.592,33.423 28.529,32.593 30.662,30.46 C34.177,26.945 34.177,21.247 30.662,17.732" id="Fill-702" fill="#6D8C60" sketch:type="MSShapeGroup"></path>
            </g>
        </g>
    </g>
</svg>