<?xml version="1.0" encoding="UTF-8" standalone="no"?>
<svg width="51px" height="57px" viewBox="0 0 51 57" version="1.1" xmlns="http://www.w3.org/2000/svg" xmlns:xlink="http://www.w3.org/1999/xlink" xmlns:sketch="http://www.bohemiancoding.com/sketch/ns">
    <!-- Generator: Sketch 3.5.1 (25234) - http://www.bohemiancoding.com/sketch -->
    <title>141 - Admirer (Flat)</title>
    <desc>Created with Sketch.</desc>
    <defs></defs>
    <g id="Page-1" stroke="none" stroke-width="1" fill="none" fill-rule="evenodd" sketch:type="MSPage">
        <g id="Icons" sketch:type="MSArtboardGroup" transform="translate(-1205.000000, -1263.000000)">
            <g id="141---Admirer-(Flat)" sketch:type="MSLayerGroup" transform="translate(1205.000000, 1263.000000)">
                <path d="M25.5,0 C11.475,0 0,11.475 0,25.5 L0,50 C0,52.2 1.8,54 4,54 L10.778,54 C14.937,56.021 20.014,57 25.5,57 C30.986,57 36.063,56.021 40.223,54 L47,54 C49.2,54 51,52.2 51,50 L51,25.5 C51,11.475 39.525,0 25.5,0" id="Fill-37" fill="#6E5847" sketch:type="MSShapeGroup"></path>
                <path d="M0.869,29.894 C0.305,32.001 0,34.215 0,36.5 M51,36.5 C51,22.842 39.495,11.66 26,11 L25,11 C11.505,11.66 0,22.842 0,36.5 C0,50.583 11.417,57 25.5,57 C39.583,57 51,50.583 51,36.5" id="Fill-80" fill="#FDC794" sketch:type="MSShapeGroup"></path>
                <path d="M15.694,26.016 C16.212,24.829 17.396,24 18.774,24 C20.63,24 21.966,25.533 22.134,27.36 C22.134,27.36 22.225,27.814 22.025,28.631 C21.753,29.743 21.115,30.731 20.253,31.484 L15.694,35.413 L11.211,31.484 C10.349,30.73 9.711,29.742 9.439,28.63 C9.239,27.814 9.33,27.36 9.33,27.36 C9.498,25.533 10.834,24 12.69,24 C14.068,24 15.175,24.829 15.694,26.016" id="Fill-169" fill="#E64C3C" sketch:type="MSShapeGroup"></path>
                <path d="M36.539,26.016 C37.057,24.829 38.242,24 39.619,24 C41.475,24 42.812,25.533 42.98,27.36 C42.98,27.36 43.07,27.814 42.871,28.631 C42.599,29.743 41.96,30.731 41.099,31.484 L36.539,35.413 L32.056,31.484 C31.195,30.73 30.556,29.742 30.284,28.63 C30.084,27.814 30.175,27.36 30.175,27.36 C30.343,25.533 31.68,24 33.535,24 C34.913,24 36.02,24.829 36.539,26.016" id="Fill-170" fill="#E64C3C" sketch:type="MSShapeGroup"></path>
                <path d="M23.577,47.994 C22.063,47.994 20.557,47.704 19.167,47.125 C18.657,46.913 18.416,46.327 18.629,45.817 C18.842,45.308 19.43,45.067 19.937,45.279 C24.641,47.241 30.201,45.091 32.077,40.588 C32.29,40.078 32.878,39.839 33.385,40.05 C33.895,40.262 34.136,40.848 33.923,41.357 C32.797,44.06 30.605,46.147 27.748,47.232 C26.412,47.741 24.991,47.994 23.577,47.994" id="Fill-171" fill="#F9A671" sketch:type="MSShapeGroup"></path>
                <path id="Stroke-172" stroke="#0096E6" stroke-width="2" stroke-linecap="round" stroke-linejoin="round" sketch:type="MSShapeGroup"></path>
                <path d="M34.999,43 C34.79,43 34.58,42.935 34.4,42.8 L30.4,39.8 C29.958,39.469 29.868,38.842 30.2,38.4 C30.531,37.958 31.158,37.87 31.6,38.2 L35.6,41.2 C36.042,41.531 36.132,42.158 35.8,42.6 C35.604,42.862 35.304,43 34.999,43" id="Fill-173" fill="#F9A671" sketch:type="MSShapeGroup"></path>
            </g>
        </g>
    </g>
</svg>