<?xml version="1.0" encoding="UTF-8" standalone="no"?>
<svg width="56px" height="40px" viewBox="0 0 56 40" version="1.1" xmlns="http://www.w3.org/2000/svg" xmlns:xlink="http://www.w3.org/1999/xlink" xmlns:sketch="http://www.bohemiancoding.com/sketch/ns">
    <!-- Generator: Sketch 3.5.1 (25234) - http://www.bohemiancoding.com/sketch -->
    <title>156 - Money (Flat)</title>
    <desc>Created with Sketch.</desc>
    <defs></defs>
    <g id="Page-1" stroke="none" stroke-width="1" fill="none" fill-rule="evenodd" sketch:type="MSPage">
        <g id="Icons" sketch:type="MSArtboardGroup" transform="translate(-602.000000, -487.000000)">
            <g id="156---Money-(Flat)" sketch:type="MSLayerGroup" transform="translate(602.000000, 487.000000)">
                <path d="M0,8 L56,8 L56,40 L0,40 L0,8 Z" id="Fill-413" fill="#4FBA6F" sketch:type="MSShapeGroup"></path>
                <path d="M52,8 L2,8 L2,4 L52,8" id="Fill-414" fill="#71C285" sketch:type="MSShapeGroup"></path>
                <path d="M15,24 L21.094,13 L10.975,13 C10.99,13.165 11,13.331 11,13.5 C11,16.537 8.537,19 5.5,19 C5.331,19 5.165,18.99 5,18.975 L5,29.025 C5.165,29.01 5.331,29 5.5,29 C8.537,29 11,31.462 11,34.5 C11,34.669 10.99,34.835 10.975,35 L21.094,35 L15,24 Z" id="Fill-416" fill="#EBEBD6" sketch:type="MSShapeGroup"></path>
                <path d="M45,13.5 C45,13.331 45.01,13.165 45.025,13 L34.906,13 L30.373291,24.3178711 L34.906,35 L45.025,35 C45.01,34.835 45,34.669 45,34.5 C45,31.462 47.463,29 50.5,29 C50.669,29 50.835,29.01 51,29.025 L51,18.975 C50.835,18.99 50.669,19 50.5,19 C47.463,19 45,16.537 45,13.5 Z" id="Fill-417" fill="#EBEBD6" sketch:type="MSShapeGroup"></path>
                <path d="M28,37 C20.82,37 15,31.18 15,24 C15,16.82 20.82,11 28,11 C35.18,11 41,16.82 41,24 C41,31.18 35.18,37 28,37 Z" id="Fill-415" fill="#4B7F55" sketch:type="MSShapeGroup"></path>
                <path d="M5.5,16 C4.121,16 3,14.879 3,13.5 C3,12.121 4.121,11 5.5,11 C6.879,11 8,12.121 8,13.5 C8,14.879 6.879,16 5.5,16" id="Fill-418" fill="#EBEBD6" sketch:type="MSShapeGroup"></path>
                <path d="M50.5,16 C49.121,16 48,14.879 48,13.5 C48,12.121 49.121,11 50.5,11 C51.879,11 53,12.121 53,13.5 C53,14.879 51.879,16 50.5,16" id="Fill-419" fill="#EBEBD6" sketch:type="MSShapeGroup"></path>
                <path d="M5.5,37 C4.121,37 3,35.879 3,34.5 C3,33.121 4.121,32 5.5,32 C6.879,32 8,33.121 8,34.5 C8,35.879 6.879,37 5.5,37" id="Fill-420" fill="#EBEBD6" sketch:type="MSShapeGroup"></path>
                <path d="M50.5,37 C49.121,37 48,35.879 48,34.5 C48,33.121 49.121,32 50.5,32 C51.879,32 53,33.121 53,34.5 C53,35.879 51.879,37 50.5,37" id="Fill-421" fill="#EBEBD6" sketch:type="MSShapeGroup"></path>
                <path d="M5,0 L5,4.24 L52,8 L55,8 L5,0" id="Fill-455" fill="#7FCC8F" sketch:type="MSShapeGroup"></path>
                <path d="M33.568,27.025 C34.278,26.805 34.8,26.149 34.8,25.369 L34.8,24.499 C34.8,23.832 34.416,23.256 33.862,22.964 C33.478,19.69 31.314,18.365 27.835,18.365 C27.671,18.365 27.509,18.371 27.351,18.384 C26.169,18.478 24.973,18.256 23.989,17.593 C23.58,17.317 23.236,17.025 22.994,16.717 C22.883,16.577 22.663,16.666 22.683,16.844 C22.718,17.148 22.77,17.503 22.847,17.892 C23.134,19.337 22.963,19.126 22.404,20.49 C22.095,21.244 21.895,22.081 21.803,22.967 C21.252,23.26 20.871,23.834 20.871,24.499 L20.871,25.369 C20.871,26.149 21.393,26.805 22.103,27.025 C22.573,28.787 23.54,30.196 25.224,30.92 L25.224,31.917 C25.224,32.173 25.079,32.405 24.85,32.518 L21.489,34.174 C21.198,34.332 20.958,34.549 20.744,34.788 C22.817,36.184 25.313,37 28,37 C30.587,37 32.992,36.235 35.017,34.932 C34.768,34.63 34.455,34.377 34.092,34.196 L30.812,32.52 C30.588,32.406 30.447,32.176 30.447,31.925 L30.447,30.92 C32.13,30.196 33.098,28.787 33.568,27.025" id="Fill-456" fill="#EAEAD6" sketch:type="MSShapeGroup"></path>
            </g>
        </g>
    </g>
</svg>