<?xml version="1.0" encoding="utf-8"?>
<!-- Generator: Adobe Illustrator 17.1.0, SVG Export Plug-In . SVG Version: 6.00 Build 0)  -->
<!DOCTYPE svg PUBLIC "-//W3C//DTD SVG 1.1//EN" "http://www.w3.org/Graphics/SVG/1.1/DTD/svg11.dtd">
<svg version="1.1" id="Layer_1" xmlns:sketch="http://www.bohemiancoding.com/sketch/ns"
	 xmlns="http://www.w3.org/2000/svg" xmlns:xlink="http://www.w3.org/1999/xlink" x="0px" y="0px" viewBox="-6 -6.7 64 67.7"
	 enable-background="new -6 -6.7 64 67.7" xml:space="preserve">
<title>168 - Coins (Flat)</title>
<g id="Page-1_1_">
	<path id="Fill-7" fill="#896745" d="M15,18.3v-1H3v1h-5c-2.2,0-4,1.8-4,4v25c0,2.2,1.8,4,4,4h22c2.2,0,4-1.8,4-4v-25
		c0-2.2-1.8-4-4-4H15z"/>
	<path id="Fill-8" fill="#A98258" d="M43,22.3v-1H31v1h-3c-2.2,0-4,1.8-4,4v21c0,2.2,1.8,4,4,4h18c2.2,0,4-1.8,4-4v-21
		c0-2.2-1.8-4-4-4H43z"/>
	<path id="Fill-9" fill="#C69666" d="M37-5.7h-9v-1H16v1H7c-2.2,0-4,1.8-4,4v19h12v1h5c2.2,0,4,1.8,4,4v4c0-2.2,1.8-4,4-4h3v-1h10
		v-23C41-3.9,39.2-5.7,37-5.7"/>
	<path id="Fill-11" fill="#E8D5B2" d="M26.5,6L22,2.3L17.5,6C16.9,6.5,16,6.1,16,5.3V-6.7h12V5.3C28,6.1,27.1,6.5,26.5,6"/>
	<path id="Fill-12" fill="#E8D5B2" d="M13.5,30L9,26.3L4.5,30C3.9,30.5,3,30.1,3,29.3V17.3h12v12.1C15,30.1,14.1,30.5,13.5,30"/>
	<path id="Fill-13" fill="#E8D5B2" d="M41.5,34.1L37,30.3l-4.5,3.8c-0.6,0.5-1.5,0.1-1.5-0.7V21.3h12v12.1
		C43,34.1,42.1,34.5,41.5,34.1"/>
	<path id="Fill-14" fill="#E8D5B2" d="M20,48.3h-3c-0.6,0-1-0.4-1-1s0.4-1,1-1h3c0.6,0,1,0.4,1,1S20.6,48.3,20,48.3"/>
	<path id="Fill-15" fill="#E8D5B2" d="M20,44.3h-5c-0.6,0-1-0.4-1-1s0.4-1,1-1h5c0.6,0,1,0.4,1,1S20.6,44.3,20,44.3"/>
</g>
<g id="Page-2" sketch:type="MSPage">
	<path id="Fill-250" sketch:type="MSShapeGroup" fill="#E5AF17" d="M45.9,57.1c-6,0-10.9-1.2-10.9-2.5v2.9c0,1.3,4.9,2.5,10.9,2.5
		s10.9-1.2,10.9-2.5v-2.9C56.7,55.8,51.9,57.1,45.9,57.1"/>
	<path id="Fill-251" sketch:type="MSShapeGroup" fill="#F4BF19" d="M44.6,52.5c-6,0-10.9-1.2-10.9-2.5v2.9c0,1.3,4.9,2.5,10.9,2.5
		s10.9-1.2,10.9-2.5V50C55.5,51.2,50.6,52.5,44.6,52.5"/>
	<path id="Fill-252" sketch:type="MSShapeGroup" fill="#E5AF17" d="M47.1,47.9c-6,0-10.9-1.2-10.9-2.5v2.9c0,1.3,4.9,2.5,10.9,2.5
		S58,49.6,58,48.3v-2.9C58,46.6,53.1,47.9,47.1,47.9"/>
	<path id="Fill-253" sketch:type="MSShapeGroup" fill="#FFD947" d="M55.5,40.4c0,1.3-4.9,2.5-10.9,2.5s-10.9-1.2-10.9-2.5
		c0-1.3,4.9-2.1,10.9-2.1S55.5,39.1,55.5,40.4"/>
	<path id="Fill-254" sketch:type="MSShapeGroup" fill="#F4BF19" d="M44.6,42.9c-6,0-10.9-1.2-10.9-2.5v2.9c0,1.3,4.9,2.5,10.9,2.5
		s10.9-1.2,10.9-2.5v-2.9C55.5,41.6,50.6,42.9,44.6,42.9"/>
	<path id="Fill-255" sketch:type="MSShapeGroup" fill="#DBA712" d="M35.4,41.6v2.9c0.3,0.1,0.5,0.2,0.8,0.3v-2.9
		C35.9,41.8,35.7,41.7,35.4,41.6"/>
	<path id="Fill-256" sketch:type="MSShapeGroup" fill="#DBA712" d="M53,41.9v2.9c0.3-0.1,0.6-0.2,0.8-0.3v-2.9
		C53.6,41.7,53.3,41.8,53,41.9"/>
	<path id="Fill-257" sketch:type="MSShapeGroup" fill="#DBA712" d="M37.5,42.2v2.9c0.3,0.1,0.5,0.1,0.8,0.2v-2.9
		C38.1,42.3,37.8,42.3,37.5,42.2"/>
	<path id="Fill-258" sketch:type="MSShapeGroup" fill="#DBA712" d="M50.9,42.4v2.9c0.3,0,0.6-0.1,0.8-0.2v-2.9
		C51.5,42.3,51.2,42.3,50.9,42.4"/>
	<path id="Fill-259" sketch:type="MSShapeGroup" fill="#DBA712" d="M39.6,42.5v2.9c0.3,0,0.6,0.1,0.8,0.1v-2.9
		C40.1,42.6,39.9,42.6,39.6,42.5"/>
	<path id="Fill-260" sketch:type="MSShapeGroup" fill="#DBA712" d="M48.8,42.6v2.9c0.3,0,0.6-0.1,0.8-0.1v-2.9
		C49.4,42.6,49.1,42.6,48.8,42.6"/>
	<path id="Fill-261" sketch:type="MSShapeGroup" fill="#DBA712" d="M41.7,42.8v2.9c0.3,0,0.6,0,0.8,0v-2.9
		C42.2,42.8,42,42.8,41.7,42.8"/>
	<path id="Fill-262" sketch:type="MSShapeGroup" fill="#DBA712" d="M46.7,42.8v2.9c0.3,0,0.6,0,0.8,0v-2.9
		C47.3,42.8,47,42.8,46.7,42.8"/>
	<path id="Fill-263" sketch:type="MSShapeGroup" fill="#DBA712" d="M44.6,42.9c-0.1,0-0.3,0-0.4,0v2.9c0.1,0,0.3,0,0.4,0
		c0.1,0,0.3,0,0.4,0v-2.9C44.9,42.8,44.8,42.9,44.6,42.9"/>
	<path id="Fill-264" sketch:type="MSShapeGroup" fill="#C49112" d="M37.9,46.6v2.9c0.3,0.1,0.5,0.2,0.8,0.3v-2.9
		C38.5,46.8,38.2,46.7,37.9,46.6"/>
	<path id="Fill-265" sketch:type="MSShapeGroup" fill="#C49112" d="M55.5,46.9v2.9c0.3-0.1,0.6-0.2,0.8-0.3v-2.9
		C56.1,46.7,55.8,46.8,55.5,46.9"/>
	<path id="Fill-266" sketch:type="MSShapeGroup" fill="#C49112" d="M40,47.2v2.9c0.3,0.1,0.5,0.1,0.8,0.2v-2.9
		C40.6,47.3,40.3,47.3,40,47.2"/>
	<path id="Fill-267" sketch:type="MSShapeGroup" fill="#C49112" d="M53.4,47.4v2.9c0.3,0,0.6-0.1,0.8-0.2v-2.9
		C54,47.3,53.7,47.3,53.4,47.4"/>
	<path id="Fill-268" sketch:type="MSShapeGroup" fill="#C49112" d="M42.1,47.6v2.9c0.3,0,0.6,0.1,0.8,0.1v-2.9
		C42.7,47.6,42.4,47.6,42.1,47.6"/>
	<path id="Fill-269" sketch:type="MSShapeGroup" fill="#C49112" d="M51.3,47.7v2.9c0.3,0,0.6-0.1,0.8-0.1v-2.9
		C51.9,47.6,51.6,47.6,51.3,47.7"/>
	<path id="Fill-270" sketch:type="MSShapeGroup" fill="#C49112" d="M44.2,47.8v2.9c0.3,0,0.6,0,0.8,0v-2.9
		C44.8,47.8,44.5,47.8,44.2,47.8"/>
	<path id="Fill-271" sketch:type="MSShapeGroup" fill="#C49112" d="M49.2,47.8v2.9c0.3,0,0.6,0,0.8,0v-2.9
		C49.8,47.8,49.5,47.8,49.2,47.8"/>
	<path id="Fill-272" sketch:type="MSShapeGroup" fill="#C49112" d="M47.1,47.9c-0.1,0-0.3,0-0.4,0v2.9c0.1,0,0.3,0,0.4,0
		s0.3,0,0.4,0v-2.9C47.4,47.9,47.3,47.9,47.1,47.9"/>
	<path id="Fill-273" sketch:type="MSShapeGroup" fill="#DBA712" d="M35.4,51.2v2.9c0.3,0.1,0.5,0.2,0.8,0.3v-2.9
		C35.9,51.4,35.7,51.3,35.4,51.2"/>
	<path id="Fill-274" sketch:type="MSShapeGroup" fill="#DBA712" d="M53,51.5v2.9c0.3-0.1,0.6-0.2,0.8-0.3v-2.9
		C53.6,51.3,53.3,51.4,53,51.5"/>
	<path id="Fill-275" sketch:type="MSShapeGroup" fill="#DBA712" d="M37.5,51.8v2.9c0.3,0.1,0.5,0.1,0.8,0.2V52
		C38.1,51.9,37.8,51.9,37.5,51.8"/>
	<path id="Fill-276" sketch:type="MSShapeGroup" fill="#DBA712" d="M50.9,52v2.9c0.3,0,0.6-0.1,0.8-0.2v-2.9
		C51.5,51.9,51.2,51.9,50.9,52"/>
	<path id="Fill-277" sketch:type="MSShapeGroup" fill="#DBA712" d="M39.6,52.2v2.9c0.3,0,0.6,0.1,0.8,0.1v-2.9
		C40.1,52.2,39.9,52.2,39.6,52.2"/>
	<path id="Fill-278" sketch:type="MSShapeGroup" fill="#DBA712" d="M48.8,52.3v2.9c0.3,0,0.6-0.1,0.8-0.1v-2.9
		C49.4,52.2,49.1,52.2,48.8,52.3"/>
	<path id="Fill-279" sketch:type="MSShapeGroup" fill="#DBA712" d="M41.7,52.4v2.9c0.3,0,0.6,0,0.8,0v-2.9
		C42.2,52.4,42,52.4,41.7,52.4"/>
	<path id="Fill-280" sketch:type="MSShapeGroup" fill="#DBA712" d="M46.7,52.4v2.9c0.3,0,0.6,0,0.8,0v-2.9
		C47.3,52.4,47,52.4,46.7,52.4"/>
	<path id="Fill-281" sketch:type="MSShapeGroup" fill="#DBA712" d="M44.6,52.5c-0.1,0-0.3,0-0.4,0v2.9c0.1,0,0.3,0,0.4,0
		c0.1,0,0.3,0,0.4,0v-2.9C44.9,52.5,44.8,52.5,44.6,52.5"/>
	<path id="Fill-282" sketch:type="MSShapeGroup" fill="#C49112" d="M36.7,55.8v2.9c0.3,0.1,0.5,0.2,0.8,0.3v-2.9
		C37.2,56,36.9,55.9,36.7,55.8"/>
	<path id="Fill-283" sketch:type="MSShapeGroup" fill="#C49112" d="M54.2,56.1V59c0.3-0.1,0.6-0.2,0.8-0.3v-2.9
		C54.8,55.9,54.5,56,54.2,56.1"/>
	<path id="Fill-284" sketch:type="MSShapeGroup" fill="#C49112" d="M38.8,56.4v2.9c0.3,0.1,0.5,0.1,0.8,0.2v-2.9
		C39.3,56.5,39,56.5,38.8,56.4"/>
	<path id="Fill-285" sketch:type="MSShapeGroup" fill="#C49112" d="M52.1,56.6v2.9c0.3,0,0.6-0.1,0.8-0.2v-2.9
		C52.7,56.5,52.4,56.5,52.1,56.6"/>
	<path id="Fill-286" sketch:type="MSShapeGroup" fill="#C49112" d="M40.9,56.8v2.9c0.3,0,0.6,0.1,0.8,0.1v-2.9
		C41.4,56.8,41.1,56.8,40.9,56.8"/>
	<path id="Fill-287" sketch:type="MSShapeGroup" fill="#C49112" d="M50.1,56.9v2.9c0.3,0,0.6-0.1,0.8-0.1v-2.9
		C50.6,56.8,50.3,56.8,50.1,56.9"/>
	<path id="Fill-288" sketch:type="MSShapeGroup" fill="#C49112" d="M42.9,57v2.9c0.3,0,0.6,0,0.8,0V57C43.5,57,43.2,57,42.9,57"/>
	<path id="Fill-289" sketch:type="MSShapeGroup" fill="#C49112" d="M48,57v2.9c0.3,0,0.6,0,0.8,0V57C48.5,57,48.2,57,48,57"/>
	<path id="Fill-290" sketch:type="MSShapeGroup" fill="#C49112" d="M45.9,57.1c-0.1,0-0.3,0-0.4,0V60c0.1,0,0.3,0,0.4,0
		c0.1,0,0.3,0,0.4,0v-2.9C46.1,57.1,46,57.1,45.9,57.1"/>
	<path id="Fill-291" sketch:type="MSShapeGroup" fill="#FCC62B" d="M55.2,53.5c-1.2,1-5.5,1.9-10.5,1.9c-4,0-7.5-0.5-9.4-1.3
		c-0.2,0.2-0.3,0.3-0.3,0.5c0,1.3,4.9,2.5,10.9,2.5s10.9-1.2,10.9-2.5C56.7,54.2,56.2,53.8,55.2,53.5"/>
	<path id="Fill-292" sketch:type="MSShapeGroup" fill="#FFD947" d="M47.1,50.8c-5.5,0-10.1-1.1-10.8-2.2c-1.6,0.4-2.6,0.9-2.6,1.4
		c0,1.3,4.9,2.5,10.9,2.5s10.9-1.2,10.9-2.5c0-0.1,0-0.1,0-0.2C53.5,50.4,50.5,50.8,47.1,50.8"/>
	<path id="Fill-293" sketch:type="MSShapeGroup" fill="#FCC62B" d="M55.1,43.9c-1.3,1-5.5,1.9-10.5,1.9c-3.2,0-6.1-0.4-8.1-0.9
		c-0.2,0.2-0.3,0.3-0.3,0.5c0,1.3,4.9,2.5,10.9,2.5S58,46.7,58,45.4C58,44.8,56.9,44.3,55.1,43.9"/>
</g>
</svg>
