<?xml version="1.0" encoding="utf-8"?>
<!-- Generator: Adobe Illustrator 17.1.0, SVG Export Plug-In . SVG Version: 6.00 Build 0)  -->
<!DOCTYPE svg PUBLIC "-//W3C//DTD SVG 1.1//EN" "http://www.w3.org/Graphics/SVG/1.1/DTD/svg11.dtd">
<svg version="1.1" id="Layer_1" xmlns:sketch="http://www.bohemiancoding.com/sketch/ns"
	 xmlns="http://www.w3.org/2000/svg" xmlns:xlink="http://www.w3.org/1999/xlink" x="0px" y="0px" viewBox="0 0 39.6 63"
	 enable-background="new 0 0 39.6 63" xml:space="preserve">
<title>19 - Phone Apps (Flat)</title>
<g id="Page-2" sketch:type="MSPage">
	<g id="Icons" transform="translate(-255.000000, -4678.000000)" sketch:type="MSArtboardGroup">
		<g id="_x31_9---Phone-Apps-_x28_Flat_x29_" transform="translate(255.000000, 4678.000000)" sketch:type="MSLayerGroup">
			<path id="Fill-1472" sketch:type="MSShapeGroup" fill="#424A60" d="M28.6,58H3.4C1.5,58,0,56.5,0,54.6V3.4C0,1.5,1.5,0,3.4,0
				h25.2C30.5,0,32,1.5,32,3.4v51.2C32,56.5,30.5,58,28.6,58"/>
			<path id="Fill-1473" sketch:type="MSShapeGroup" fill="#E8EDEE" d="M0,6h32v40H0V6z"/>
			<path id="Fill-1474" sketch:type="MSShapeGroup" fill="#262B35" d="M19,52c0,1.7-1.3,3-3,3s-3-1.3-3-3c0-1.7,1.3-3,3-3
				S19,50.3,19,52"/>
			<path id="Fill-1475" sketch:type="MSShapeGroup" fill="#262B35" d="M16,4h-4c-0.6,0-1-0.4-1-1c0-0.6,0.4-1,1-1h4c0.6,0,1,0.4,1,1
				C17,3.6,16.6,4,16,4"/>
			<path id="Fill-1476" sketch:type="MSShapeGroup" fill="#262B35" d="M20,4h-1c-0.6,0-1-0.4-1-1c0-0.6,0.4-1,1-1h1c0.6,0,1,0.4,1,1
				C21,3.6,20.6,4,20,4"/>
			<path id="Fill-1505" sketch:type="MSShapeGroup" fill="#3083C9" d="M18,17H14c-0.6,0-1-0.5-1-1v-3.9c0-0.6,0.5-1,1-1H18
				c0.6,0,1,0.5,1,1V16C19,16.6,18.5,17,18,17"/>
			<path id="Fill-1506" sketch:type="MSShapeGroup" fill="#88C057" d="M9,17H5c-0.6,0-1-0.5-1-1v-3.9c0-0.6,0.5-1,1-1H9
				c0.6,0,1,0.5,1,1V16C10,16.6,9.5,17,9,17"/>
			<path id="Fill-1507" sketch:type="MSShapeGroup" fill="#DD691D" d="M27,17H23c-0.6,0-1-0.5-1-1v-3.9c0-0.6,0.5-1,1-1H27
				c0.6,0,1,0.5,1,1V16C28,16.6,27.5,17,27,17"/>
			<path id="Fill-1508" sketch:type="MSShapeGroup" fill="#ECBA16" d="M18,26H14c-0.6,0-1-0.5-1-1V21c0-0.6,0.5-1,1-1H18
				c0.6,0,1,0.5,1,1V25C19,25.5,18.5,26,18,26"/>
			<path id="Fill-1509" sketch:type="MSShapeGroup" fill="#7383BF" d="M9,26H5c-0.6,0-1-0.5-1-1V21c0-0.6,0.5-1,1-1H9
				c0.6,0,1,0.5,1,1V25C10,25.5,9.5,26,9,26"/>
			<path id="Fill-1510" sketch:type="MSShapeGroup" fill="#DD342E" d="M27,26H23c-0.6,0-1-0.5-1-1V21c0-0.6,0.5-1,1-1H27
				c0.6,0,1,0.5,1,1V25C28,25.5,27.5,26,27,26"/>
			<path id="Fill-1511" sketch:type="MSShapeGroup" fill="#A485BE" d="M18,35H14c-0.6,0-1-0.5-1-1V30c0-0.6,0.5-1,1-1H18
				c0.6,0,1,0.5,1,1V34C19,34.5,18.5,35,18,35"/>
			<path id="Fill-1512" sketch:type="MSShapeGroup" fill="#EA6148" d="M9,35H5c-0.6,0-1-0.5-1-1V30c0-0.6,0.5-1,1-1H9
				c0.6,0,1,0.5,1,1V34C10,34.5,9.5,35,9,35"/>
			<path id="Fill-1513" sketch:type="MSShapeGroup" fill="#25AE88" d="M27,35H23c-0.6,0-1-0.5-1-1V30c0-0.6,0.5-1,1-1H27
				c0.6,0,1,0.5,1,1V34C28,34.5,27.5,35,27,35"/>
		</g>
	</g>
</g>
<g id="Page-1_1_" sketch:type="MSPage">
	<path id="Fill-30" sketch:type="MSShapeGroup" fill="#88C057" d="M30.3,38.5c0,0-2.8,3.4-9.3,3.4v8.1c0,4.2,1.8,8.3,5.1,10.9
		c1.2,0.9,2.6,1.7,4.2,2.2c1.6-0.5,3-1.3,4.2-2.2c3.3-2.6,5.1-6.7,5.1-10.9v-8.1C33.1,41.8,30.3,38.5,30.3,38.5"/>
	<path id="Fill-31" sketch:type="MSShapeGroup" fill="#7CAA50" d="M21,41.8v8.1c0,4.2,1.8,8.3,5.1,10.9c1.2,0.9,2.6,1.7,4.2,2.2
		V38.5C30.3,38.5,27.5,41.8,21,41.8"/>
</g>
<path id="Stroke-168" fill="none" stroke="#D4C3A5" stroke-width="2" stroke-linecap="round" stroke-linejoin="round" d="M27.3,50
	l3,4"/>
<path id="Stroke-169" fill="none" stroke="#D4C3A5" stroke-width="2" stroke-linecap="round" stroke-linejoin="round" d="M35.3,47
	l-5,7"/>
</svg>
