<?xml version="1.0" encoding="UTF-8" standalone="no"?>
<svg width="32px" height="58px" viewBox="0 0 32 58" version="1.1" xmlns="http://www.w3.org/2000/svg" xmlns:xlink="http://www.w3.org/1999/xlink">
    <!-- Generator: Sketch 3.8.2 (29753) - http://www.bohemiancoding.com/sketch -->
    <title>197 -Up- (Flat)</title>
    <desc>Created with Sketch.</desc>
    <defs></defs>
    <g id="Page-1" stroke="none" stroke-width="1" fill="none" fill-rule="evenodd">
        <g id="Icons" transform="translate(-854.000000, -775.000000)" fill="#4FBA6F">
            <g id="197--Up--(Flat)" transform="translate(854.000000, 775.000000)">
                <polygon id="Fill-114" points="16 0.001 0 22.001 11 22.001 11 34.001 21 34.001 21 22.001 32 22.001"></polygon>
                <path d="M19,38.001 L13,38.001 C11.9,38.001 11,38.901 11,40.001 C11,41.101 11.9,42.001 13,42.001 L19,42.001 C20.1,42.001 21,41.101 21,40.001 C21,38.901 20.1,38.001 19,38.001" id="Fill-116"></path>
                <path d="M19,46.001 L13,46.001 C11.9,46.001 11,46.901 11,48.001 C11,49.101 11.9,50.001 13,50.001 L19,50.001 C20.1,50.001 21,49.101 21,48.001 C21,46.901 20.1,46.001 19,46.001" id="Fill-118"></path>
                <path d="M19,54.001 L13,54.001 C11.9,54.001 11,54.901 11,56.001 C11,57.101 11.9,58.001 13,58.001 L19,58.001 C20.1,58.001 21,57.101 21,56.001 C21,54.901 20.1,54.001 19,54.001" id="Fill-120"></path>
            </g>
        </g>
    </g>
</svg>