<?xml version="1.0" encoding="UTF-8" standalone="no"?>
<svg width="59px" height="50px" viewBox="0 0 59 50" version="1.1" xmlns="http://www.w3.org/2000/svg" xmlns:xlink="http://www.w3.org/1999/xlink" xmlns:sketch="http://www.bohemiancoding.com/sketch/ns">
    <!-- Generator: Sketch 3.5.1 (25234) - http://www.bohemiancoding.com/sketch -->
    <title>21 - Shopping Cart (Flat)</title>
    <desc>Created with Sketch.</desc>
    <defs></defs>
    <g id="Page-1" stroke="none" stroke-width="1" fill="none" fill-rule="evenodd" sketch:type="MSPage">
        <g id="Icons" sketch:type="MSArtboardGroup" transform="translate(-1201.000000, -2047.000000)">
            <g id="21---Shopping-Cart-(Flat)" sketch:type="MSLayerGroup" transform="translate(1201.000000, 2047.000000)">
                <path d="M15,35 L9.833,8 L58,8 L58,31.012 C58,33.215 56.215,35 54.012,35 L15,35" id="Fill-198" fill="#ECF0F1" sketch:type="MSShapeGroup"></path>
                <path d="M15,35 L9.833,8 L58,8 L58,31.012 C58,33.215 56.215,35 54.012,35 L15,35" id="Stroke-199" stroke="#556080" stroke-width="2" stroke-linecap="round" sketch:type="MSShapeGroup"></path>
                <path d="M27,44 C27,46.761 24.761,49 22,49 C19.239,49 17,46.761 17,44 C17,41.239 19.239,39 22,39 C24.761,39 27,41.239 27,44 L27,44 Z" id="Fill-1640" fill="#FFFFFF" sketch:type="MSShapeGroup"></path>
                <path d="M27,44 C27,46.761 24.761,49 22,49 C19.239,49 17,46.761 17,44 C17,41.239 19.239,39 22,39 C24.761,39 27,41.239 27,44 L27,44 Z" id="Stroke-1641" stroke="#556080" stroke-width="2" stroke-linecap="round" sketch:type="MSShapeGroup"></path>
                <path d="M50,44 C50,46.761 47.761,49 45,49 C42.239,49 40,46.761 40,44 C40,41.239 42.239,39 45,39 C47.761,39 50,41.239 50,44 L50,44 Z" id="Fill-1642" fill="#FFFFFF" sketch:type="MSShapeGroup"></path>
                <path d="M50,44 C50,46.761 47.761,49 45,49 C42.239,49 40,46.761 40,44 C40,41.239 42.239,39 45,39 C47.761,39 50,41.239 50,44 L50,44 Z" id="Stroke-1643" stroke="#556080" stroke-width="2" stroke-linecap="round" sketch:type="MSShapeGroup"></path>
                <path d="M49.899,43 L55,43 M26.899,43 L40.101,43 M6,3 L9,3 L9.833,8" id="Stroke-1644" stroke="#556080" stroke-width="2" stroke-linecap="round" sketch:type="MSShapeGroup"></path>
                <path d="M59,16 L50,16 L50,7 L39,7 L39,16 L32,16 L32,7 L21,7 L21,16 L10.347,16 L12.45,27 L21,27 L21,35.998 L32,35.995 L32,27 L39,27 L39,35.992 L50,35.989 L50,27 L59,27 L59,16 L59,16 Z M41,9 L48,9 L48,16 L41,16 L41,9 Z M41,18 L48,18 L48,25 L41,25 L41,18 Z M23,9 L30,9 L30,16 L23,16 L23,9 Z M23,18 L30,18 L30,25 L23,25 L23,18 Z M14.104,25 L12.765,18 L21,18 L21,25 L14.104,25 L14.104,25 Z M30,33.995 L23,33.998 L23,27 L30,27 L30,33.995 L30,33.995 Z M32,18 L39,18 L39,25 L32,25 L32,18 Z M48,33.989 L41,33.992 L41,27 L48,27 L48,33.989 L48,33.989 Z M50,18 L57,18 L57,25 L50,25 L50,18 Z" id="Fill-1645" fill="#556080" sketch:type="MSShapeGroup"></path>
                <path d="M14.189,35 C12.103,35 10.231,36.514 10.021,38.59 C9.78,40.971 11.665,43 14,43 L17.101,43" id="Path" stroke="#556080" stroke-width="2" stroke-linecap="round" sketch:type="MSShapeGroup"></path>
                <path d="M6,3 C6,4.657 4.657,6 3,6 C1.343,6 0,4.657 0,3 C0,1.343 1.343,0 3,0 C4.657,0 6,1.343 6,3" id="Fill-2200" fill="#E64C3C" sketch:type="MSShapeGroup"></path>
            </g>
        </g>
    </g>
</svg>