<?xml version="1.0" encoding="UTF-8" standalone="no"?>
<svg width="57px" height="56px" viewBox="0 0 57 56" version="1.1" xmlns="http://www.w3.org/2000/svg" xmlns:xlink="http://www.w3.org/1999/xlink">
    <!-- Generator: Sketch 3.8.2 (29753) - http://www.bohemiancoding.com/sketch -->
    <title>24 -Download Delivery- (Flat)</title>
    <desc>Created with Sketch.</desc>
    <defs></defs>
    <g id="Page-1" stroke="none" stroke-width="1" fill="none" fill-rule="evenodd">
        <g id="Icons" transform="translate(-481.000000, -623.000000)">
            <g id="24--Download-Delivery--(Flat)" transform="translate(481.000000, 623.000000)">
                <path d="M34,10 L28,10 L28,8 L18,8 L18,10 L3.95,10 C1.768,10 0,11.768 0,13.95 L0,52.05 C0,54.232 1.768,56 3.95,56 L42,56 C44.209,56 46,54.209 46,52 L46,22 L36,22 C34.895,22 34,21.105 34,20 L34,10 Z" id="Fill-122" fill="#C69666"></path>
                <path d="M26.5327,20.8262 L22.9997,18.0002 L19.4677,20.8262 C18.8757,21.2992 17.9997,20.8782 17.9997,20.1212 L17.9997,8.0002 L27.9997,8.0002 L27.9997,20.1212 C27.9997,20.8782 27.1237,21.2992 26.5327,20.8262" id="Fill-324" fill="#E8D5B2"></path>
                <polygon id="Fill-325" fill="#E8D5B2" points="6 52 20 52 20 40 6 40"></polygon>
                <path d="M16,45 L10,45 C9.448,45 9,44.552 9,44 C9,43.448 9.448,43 10,43 L16,43 C16.552,43 17,43.448 17,44 C17,44.552 16.552,45 16,45" id="Fill-326" fill="#CBB292"></path>
                <path d="M14,49 L10,49 C9.448,49 9,48.552 9,48 C9,47.448 9.448,47 10,47 L14,47 C14.552,47 15,47.448 15,48 C15,48.552 14.552,49 14,49" id="Fill-327" fill="#CBB292"></path>
                <path d="M54.9762,24 L35.0242,24 C33.9062,24 33.0002,23.094 33.0002,21.976 L33.0002,2.024 C33.0002,0.906 33.9062,0 35.0242,0 L54.9762,0 C56.0942,0 57.0002,0.906 57.0002,2.024 L57.0002,21.976 C57.0002,23.094 56.0942,24 54.9762,24" id="Fill-360" fill="#48A0DC"></path>
                <path d="M52,13 L38,13 C37.448,13 37,12.552 37,12 C37,11.448 37.448,11 38,11 L52,11 C52.552,11 53,11.448 53,12 C53,12.552 52.552,13 52,13" id="Fill-361" fill="#FFFFFF"></path>
                <path d="M48,17 C47.744,17 47.488,16.902 47.293,16.707 C46.902,16.316 46.902,15.684 47.293,15.293 L50.586,12 L47.293,8.707 C46.902,8.316 46.902,7.684 47.293,7.293 C47.684,6.902 48.316,6.902 48.707,7.293 L52.707,11.293 C53.098,11.684 53.098,12.316 52.707,12.707 L48.707,16.707 C48.512,16.902 48.256,17 48,17" id="Fill-362" fill="#FFFFFF"></path>
            </g>
        </g>
    </g>
</svg>