<?xml version="1.0" encoding="utf-8"?>
<!-- Generator: Adobe Illustrator 17.1.0, SVG Export Plug-In . SVG Version: 6.00 Build 0)  -->
<!DOCTYPE svg PUBLIC "-//W3C//DTD SVG 1.1//EN" "http://www.w3.org/Graphics/SVG/1.1/DTD/svg11.dtd">
<svg version="1.1" id="Layer_1" xmlns="http://www.w3.org/2000/svg" xmlns:xlink="http://www.w3.org/1999/xlink" x="0px" y="0px"
	 viewBox="0 -16.2 75 74.2" enable-background="new 0 -16.2 75 74.2" xml:space="preserve">
<title>3 -Box- (Flat)</title>
<g id="Page-2">
	<g id="Icons" transform="translate(-361.000000, -381.000000)">
		<g id="_x33_--Box--_x28_Flat_x29_" transform="translate(361.000000, 381.000000)">
			<path id="Fill-149" fill="#C69666" d="M36,2V0H22v2H4C1.8,2,0,3.8,0,6v48c0,2.2,1.8,4,4,4h50c2.2,0,4-1.8,4-4V6c0-2.2-1.8-4-4-4
				H36z"/>
			<path id="Fill-183" fill="#E8D5B2" d="M34.6,14.8L29,10l-5.6,4.8c-0.5,0.5-1.4,0.1-1.4-0.6V0h14v14.2
				C36,14.9,35.2,15.3,34.6,14.8"/>
			<path id="Fill-184" fill="#E8D5B2" d="M39,43H19c-0.6,0-1-0.5-1-1V24c0-0.6,0.5-1,1-1H39c0.6,0,1,0.5,1,1V42
				C40,42.5,39.5,43,39,43"/>
			<path id="Fill-185" fill="#CBB292" d="M29,28h-7c-0.6,0-1-0.4-1-1s0.4-1,1-1h7c0.6,0,1,0.4,1,1S29.6,28,29,28"/>
			<path id="Fill-186" fill="#CBB292" d="M36,28h-3c-0.6,0-1-0.4-1-1s0.4-1,1-1h3c0.6,0,1,0.4,1,1S36.6,28,36,28"/>
			<path id="Fill-187" fill="#CBB292" d="M25,32h-3c-0.6,0-1-0.4-1-1s0.4-1,1-1h3c0.6,0,1,0.4,1,1S25.6,32,25,32"/>
			<path id="Fill-188" fill="#CBB292" d="M36,32h-7c-0.6,0-1-0.4-1-1s0.4-1,1-1h7c0.6,0,1,0.4,1,1S36.6,32,36,32"/>
			<path id="Fill-189" fill="#CBB292" d="M30,36h-8c-0.6,0-1-0.4-1-1s0.4-1,1-1h8c0.6,0,1,0.4,1,1S30.6,36,30,36"/>
			<path id="Fill-190" fill="#CBB292" d="M36,36h-2c-0.6,0-1-0.4-1-1s0.4-1,1-1h2c0.6,0,1,0.4,1,1S36.6,36,36,36"/>
			<path id="Fill-191" fill="#CBB292" d="M28,40h-6c-0.6,0-1-0.4-1-1s0.4-1,1-1h6c0.6,0,1,0.4,1,1S28.6,40,28,40"/>
			<path id="Fill-192" fill="#CBB292" d="M36,40h-4c-0.6,0-1-0.4-1-1s0.4-1,1-1h4c0.6,0,1,0.4,1,1S36.6,40,36,40"/>
		</g>
	</g>
</g>
<g id="Page-1_1_">
	<g id="Icons_1_" transform="translate(-601.000000, -501.000000)">
		<g id="_x31_5--Success-Delivery--_x28_Flat_x29_" transform="translate(601.000000, 501.000000)">
			<path id="Fill-129" fill="#C1C1C1" d="M61.2-9.3h-3.5v-1.2h-5.8v1.2h-8.1c-1.3,0-2.3,1-2.3,2.3v21.9c0,1.3,1,2.3,2.3,2.3h21.9
				c1.3,0,2.3-1,2.3-2.3V-2.4C64.3-2.4,61.2-5.5,61.2-9.3"/>
			<path id="Fill-306" fill="#E8D5B2" d="M56.9-3.1l-2-1.6l-2,1.6c-0.3,0.3-0.8,0-0.8-0.4v-7h5.8v7C57.7-3.1,57.2-2.8,56.9-3.1"/>
			<path id="Fill-307" fill="#26B99A" d="M75-9.3c0-3.8-3.1-6.9-6.9-6.9s-6.9,3.1-6.9,6.9s3.1,6.9,6.9,6.9S75-5.5,75-9.3"/>
			<path id="Fill-308" fill="#FFFFFF" d="M67.5-5.3c-0.2,0-0.3-0.1-0.4-0.2l-2.9-2.9c-0.2-0.2-0.2-0.6,0-0.8c0.2-0.2,0.6-0.2,0.8,0
				l2.4,2.4l3.6-5.7c0.2-0.3,0.5-0.3,0.8-0.2c0.3,0.2,0.3,0.5,0.2,0.8l-4,6.3C67.9-5.4,67.7-5.3,67.5-5.3
				C67.5-5.3,67.5-5.3,67.5-5.3"/>
			<polygon id="Fill-309" fill="#E8D5B2" points="45,14.9 53.1,14.9 53.1,8 45,8 			"/>
			<path id="Fill-310" fill="#CBB292" d="M50.8,10.9h-3.5c-0.3,0-0.6-0.3-0.6-0.6c0-0.3,0.3-0.6,0.6-0.6h3.5c0.3,0,0.6,0.3,0.6,0.6
				C51.4,10.6,51.1,10.9,50.8,10.9"/>
			<path id="Fill-311" fill="#CBB292" d="M49.6,13.2h-2.3c-0.3,0-0.6-0.3-0.6-0.6S47,12,47.3,12h2.3c0.3,0,0.6,0.3,0.6,0.6
				S49.9,13.2,49.6,13.2"/>
		</g>
	</g>
</g>
</svg>
