<?xml version="1.0" encoding="UTF-8" standalone="no"?>
<svg width="53px" height="49px" viewBox="0 0 53 49" version="1.1" xmlns="http://www.w3.org/2000/svg" xmlns:xlink="http://www.w3.org/1999/xlink">
    <!-- Generator: Sketch 3.8.2 (29753) - http://www.bohemiancoding.com/sketch -->
    <title>31 -Forklift- (Flat)</title>
    <desc>Created with Sketch.</desc>
    <defs></defs>
    <g id="Page-1" stroke="none" stroke-width="1" fill="none" fill-rule="evenodd">
        <g id="Icons" transform="translate(-126.000000, -750.000000)">
            <g id="31--Forklift--(Flat)" transform="translate(126.000000, 750.000000)">
                <path d="M35,43 C35,39.686 32.314,37 29,37 C25.686,37 23,39.686 23,43 C23,46.314 25.686,49 29,49 C32.314,49 35,46.314 35,43" id="Fill-243" fill="#605F5E"></path>
                <path d="M50.5,6 L41,6 L28.34,37.038 C28.557,37.014 28.777,37 29,37 C31.438,37 33.531,38.456 34.47,40.544 L46.521,11 L50.5,11 C51.881,11 53,9.881 53,8.5 C53,7.119 51.881,6 50.5,6" id="Fill-244" fill="#FFD479"></path>
                <path d="M23,43 C23,40.728 24.264,38.751 26.126,37.733 L5.096,29.155 C3.306,28.425 1.263,29.284 0.533,31.074 L0.533,31.074 C-0.197,32.864 0.663,34.907 2.452,35.637 L23.099,44.058 C23.038,43.714 23,43.362 23,43" id="Fill-245" fill="#FFD479"></path>
                <path d="M28.3403,37.038 L39.8673,8.778 L19.0953,0.137 C18.2963,-0.196 17.3793,0.187 17.0543,0.99 L5.5593,29.344 L26.1263,37.733 C26.7963,37.366 27.5453,37.125 28.3403,37.038" id="Fill-246" fill="#C69666"></path>
                <polygon id="Fill-476" fill="#E8D5B2" points="28.6828 15.0159 32.3688 5.6589 24.9818 2.5859 21.2748 11.9949 26.4898 9.8019"></polygon>
            </g>
        </g>
    </g>
</svg>