<?xml version="1.0" encoding="utf-8"?>
<!-- Generator: Adobe Illustrator 17.1.0, SVG Export Plug-In . SVG Version: 6.00 Build 0)  -->
<!DOCTYPE svg PUBLIC "-//W3C//DTD SVG 1.1//EN" "http://www.w3.org/Graphics/SVG/1.1/DTD/svg11.dtd">
<svg version="1.1" id="Layer_1" xmlns:sketch="http://www.bohemiancoding.com/sketch/ns"
	 xmlns="http://www.w3.org/2000/svg" xmlns:xlink="http://www.w3.org/1999/xlink" x="0px" y="0px" viewBox="0 0 58 57"
	 enable-background="new 0 0 58 57" xml:space="preserve">
<title>36 - Calendar Date (Webby)</title>
<desc>Created with Sketch.</desc>
<g id="Page-1" sketch:type="MSPage">
	<g id="Icons" transform="translate(-601.000000, -4440.000000)" sketch:type="MSArtboardGroup">
		<g id="_x33_6---Calendar-Date-_x28_Webby_x29_" transform="translate(602.000000, 4441.000000)" sketch:type="MSLayerGroup">
			
				<path id="Path" sketch:type="MSShapeGroup" fill="none" stroke="#0F81E0" stroke-width="2" stroke-linecap="round" stroke-linejoin="round" d="
				M18,4h-3"/>
			
				<path id="Path_1_" sketch:type="MSShapeGroup" fill="none" stroke="#0F81E0" stroke-width="2" stroke-linecap="round" stroke-linejoin="round" d="
				M41,4h15v11H0V4h15"/>
			<path id="Fill-120" sketch:type="MSShapeGroup" fill="#FFFFFF" d="M0,15h56v40H0V15z"/>
			
				<path id="Stroke-121" sketch:type="MSShapeGroup" fill="none" stroke="#0F81E0" stroke-width="2" stroke-linecap="round" stroke-linejoin="round" d="
				M0,15h56v40H0V15z"/>
			
				<path id="Path_7_" sketch:type="MSShapeGroup" fill="none" stroke="#0F81E0" stroke-width="2" stroke-linecap="round" stroke-linejoin="round" d="
				M15,4c0-2.2,1.8-4,4-4s4,1.8,4,4s-1.8,4-4,4"/>
			
				<path id="Path_8_" sketch:type="MSShapeGroup" fill="none" stroke="#0F81E0" stroke-width="2" stroke-linecap="round" stroke-linejoin="round" d="
				M25,8c2.2,0,4-1.8,4-4s-1.8-4-4-4"/>
			
				<path id="Path_9_" sketch:type="MSShapeGroup" fill="none" stroke="#0F81E0" stroke-width="2" stroke-linecap="round" stroke-linejoin="round" d="
				M31,8c2.2,0,4-1.8,4-4s-1.8-4-4-4"/>
			
				<path id="Path_10_" sketch:type="MSShapeGroup" fill="none" stroke="#0F81E0" stroke-width="2" stroke-linecap="round" stroke-linejoin="round" d="
				M37,8c2.2,0,4-1.8,4-4s-1.8-4-4-4"/>
		</g>
	</g>
</g>
</svg>
