<?xml version="1.0" encoding="utf-8"?>
<!-- Generator: Adobe Illustrator 17.1.0, SVG Export Plug-In . SVG Version: 6.00 Build 0)  -->
<!DOCTYPE svg PUBLIC "-//W3C//DTD SVG 1.1//EN" "http://www.w3.org/Graphics/SVG/1.1/DTD/svg11.dtd">
<svg version="1.1" id="Layer_1" xmlns:sketch="http://www.bohemiancoding.com/sketch/ns"
	 xmlns="http://www.w3.org/2000/svg" xmlns:xlink="http://www.w3.org/1999/xlink" x="0px" y="0px" viewBox="0 0 60 34"
	 enable-background="new 0 0 60 34" xml:space="preserve">
<title>370 - View (Webby)</title>
<g id="Page-1" sketch:type="MSPage">
	<g id="Icons" transform="translate(-120.000000, -490.000000)" sketch:type="MSArtboardGroup">
		<g id="_x33_70---View-_x28_Webby_x29_" transform="translate(121.000000, 491.000000)" sketch:type="MSLayerGroup">
			<path id="Fill-831" sketch:type="MSShapeGroup" fill="#FFFFFF" d="M57.2,16.1L50,23.4c-11.5,11.5-30.2,11.5-41.7,0l-7.4-7.4
				l7.2-7.2c11.5-11.5,30.2-11.5,41.7,0L57.2,16.1L57.2,16.1z"/>
			
				<path id="Stroke-832" sketch:type="MSShapeGroup" fill="none" stroke="#0F81E0" stroke-width="2" stroke-linecap="round" stroke-linejoin="round" d="
				M57.2,16.1L50,23.4c-11.5,11.5-30.2,11.5-41.7,0l-7.4-7.4l7.2-7.2c11.5-11.5,30.2-11.5,41.7,0L57.2,16.1L57.2,16.1z"/>
			<path id="Fill-833" sketch:type="MSShapeGroup" fill="#C6E3F8" d="M41,16c0,6.6-5.4,12-12,12s-12-5.4-12-12S22.4,4,29,4
				S41,9.4,41,16L41,16z"/>
			
				<path id="Stroke-834" sketch:type="MSShapeGroup" fill="none" stroke="#0F81E0" stroke-width="2" stroke-linecap="round" stroke-linejoin="round" d="
				M41,16c0,6.6-5.4,12-12,12s-12-5.4-12-12S22.4,4,29,4S41,9.4,41,16L41,16z"/>
		</g>
	</g>
</g>
</svg>
