<?xml version="1.0" encoding="utf-8"?>
<!-- Generator: Adobe Illustrator 17.1.0, SVG Export Plug-In . SVG Version: 6.00 Build 0)  -->
<!DOCTYPE svg PUBLIC "-//W3C//DTD SVG 1.1//EN" "http://www.w3.org/Graphics/SVG/1.1/DTD/svg11.dtd">
<svg version="1.1" id="Layer_1" xmlns:sketch="http://www.bohemiancoding.com/sketch/ns"
	 xmlns="http://www.w3.org/2000/svg" xmlns:xlink="http://www.w3.org/1999/xlink" x="0px" y="0px" viewBox="-8.7 0 66.7 58"
	 enable-background="new -8.7 0 66.7 58" xml:space="preserve">
<title>60 - Delivery Box (Flat)</title>
<g id="Page-2" sketch:type="MSPage">
	<g id="Icons" transform="translate(-121.000000, -1678.000000)" sketch:type="MSArtboardGroup">
		<g id="_x36_0---Delivery-Box-_x28_Flat_x29_" transform="translate(121.000000, 1678.000000)" sketch:type="MSLayerGroup">
			<path id="Fill-170" sketch:type="MSShapeGroup" fill="#A98258" d="M48,0H10L0,16v42h58V16L48,0"/>
			<path id="Fill-171" sketch:type="MSShapeGroup" fill="#DAAE86" d="M10,0L0,16h58L48,0H10"/>
			<path id="Fill-1107" sketch:type="MSShapeGroup" fill="#D8B18B" d="M33,54l-4-4l-4,4l-2-2v6h12v-6L33,54"/>
			<path id="Fill-1108" sketch:type="MSShapeGroup" fill="#E8D5B2" d="M20,30h18v16H20V30z"/>
			<path id="Fill-1109" sketch:type="MSShapeGroup" fill="#D4C3A5" d="M30,41h-6c-0.6,0-1,0.4-1,1s0.4,1,1,1h6c0.6,0,1-0.4,1-1
				S30.6,41,30,41"/>
			<path id="Fill-1110" sketch:type="MSShapeGroup" fill="#D4C3A5" d="M34,41h-1c-0.6,0-1,0.4-1,1s0.4,1,1,1h1c0.6,0,1-0.4,1-1
				S34.6,41,34,41"/>
			<path id="Fill-1111" sketch:type="MSShapeGroup" fill="#D4C3A5" d="M28,35h6c0.6,0,1-0.4,1-1s-0.4-1-1-1h-6c-0.6,0-1,0.4-1,1
				S27.4,35,28,35"/>
			<path id="Fill-1112" sketch:type="MSShapeGroup" fill="#D4C3A5" d="M34,37h-2c-0.6,0-1,0.4-1,1s0.4,1,1,1h2c0.6,0,1-0.4,1-1
				S34.6,37,34,37"/>
			<path id="Fill-1113" sketch:type="MSShapeGroup" fill="#D4C3A5" d="M24,39h2c0.6,0,1-0.4,1-1s-0.4-1-1-1h-2c-0.6,0-1,0.4-1,1
				S23.4,39,24,39"/>
			<path id="Fill-1114" sketch:type="MSShapeGroup" fill="#D4C3A5" d="M24,35h1c0.6,0,1-0.4,1-1s-0.4-1-1-1h-1c-0.6,0-1,0.4-1,1
				S23.4,35,24,35"/>
			<path id="Fill-1115" sketch:type="MSShapeGroup" fill="#D4C3A5" d="M28.3,37.3C28.1,37.5,28,37.7,28,38c0,0.3,0.1,0.5,0.3,0.7
				c0.2,0.2,0.4,0.3,0.7,0.3s0.5-0.1,0.7-0.3c0.2-0.2,0.3-0.5,0.3-0.7s-0.1-0.5-0.3-0.7C29.3,36.9,28.7,36.9,28.3,37.3"/>
			<path id="Fill-1975" sketch:type="MSShapeGroup" fill="#F4D5BD" d="M23,0h12v16H23V0z"/>
			<path id="Fill-1976" sketch:type="MSShapeGroup" fill="#D8B18B" d="M25,21l4,4l4-4l2,2v-7H23v7L25,21"/>
		</g>
	</g>
</g>
<g id="Page-1_1_" sketch:type="MSPage">
	<path id="Fill-3147" sketch:type="MSShapeGroup" fill="#E8EDEE" d="M8.4,56.3H-5.8c-1.1,0-1.9-0.9-1.9-1.9V25.6
		c0-1.1,0.9-1.9,1.9-1.9H8.4c1.1,0,1.9,0.9,1.9,1.9v28.8C10.3,55.5,9.4,56.3,8.4,56.3"/>
	<path id="Fill-3148" sketch:type="MSShapeGroup" fill="#FFFFFF" d="M3,53.5c0,0.9-0.8,1.7-1.7,1.7s-1.7-0.8-1.7-1.7
		c0-0.9,0.8-1.7,1.7-1.7S3,52.6,3,53.5"/>
	<path id="Fill-3149" sketch:type="MSShapeGroup" fill="#424A60" d="M1.3,25.9H-1c-0.3,0-0.6-0.3-0.6-0.6c0-0.3,0.3-0.6,0.6-0.6h2.3
		c0.3,0,0.6,0.3,0.6,0.6C1.8,25.7,1.6,25.9,1.3,25.9"/>
	<path id="Fill-3150" sketch:type="MSShapeGroup" fill="#424A60" d="M3.5,25.9H3c-0.3,0-0.6-0.3-0.6-0.6c0-0.3,0.3-0.6,0.6-0.6h0.6
		c0.3,0,0.6,0.3,0.6,0.6C4.1,25.7,3.8,25.9,3.5,25.9"/>
	<path id="Fill-3151" sketch:type="MSShapeGroup" fill="#424A60" d="M-7.7,27.1h18v23.6h-18V27.1z"/>
	<path id="Path" sketch:type="MSShapeGroup" fill="none" stroke="#ECBA16" stroke-width="2" stroke-linecap="round" d="M0.7,38.3
		h21.4"/>
	<path id="Path_1_" sketch:type="MSShapeGroup" fill="none" stroke="#ECBA16" stroke-width="2" stroke-linecap="round" d="
		M15.4,31.6l6.8,6.8"/>
	<path id="Path_2_" sketch:type="MSShapeGroup" fill="none" stroke="#ECBA16" stroke-width="2" stroke-linecap="round" d="
		M15.4,45.1l6.8-6.8"/>
</g>
</svg>
