<?xml version="1.0" encoding="utf-8"?>
<!-- Generator: Adobe Illustrator 17.1.0, SVG Export Plug-In . SVG Version: 6.00 Build 0)  -->
<!DOCTYPE svg PUBLIC "-//W3C//DTD SVG 1.1//EN" "http://www.w3.org/Graphics/SVG/1.1/DTD/svg11.dtd">
<svg version="1.1" id="Layer_1" xmlns:sketch="http://www.bohemiancoding.com/sketch/ns"
	 xmlns="http://www.w3.org/2000/svg" xmlns:xlink="http://www.w3.org/1999/xlink" x="0px" y="0px" viewBox="0 0 98.3 58"
	 enable-background="new 0 0 98.3 58" xml:space="preserve">
<title>9 - Search Phone (Flat)</title>
<g id="Page-1" sketch:type="MSPage">
	<path id="Fill-1477" sketch:type="MSShapeGroup" fill="#424A60" d="M52.6,58H27.4c-1.9,0-3.4-1.5-3.4-3.4V3.4C24,1.5,25.5,0,27.4,0
		h25.2C54.5,0,56,1.5,56,3.4v51.2C56,56.5,54.5,58,52.6,58"/>
	<path id="Fill-1478" sketch:type="MSShapeGroup" fill="#E8EDEE" d="M24,6h32v40H24V6z"/>
	<path id="Fill-1479" sketch:type="MSShapeGroup" fill="#262B35" d="M43,52c0,1.7-1.3,3-3,3s-3-1.3-3-3c0-1.7,1.3-3,3-3
		S43,50.3,43,52"/>
	<path id="Fill-1480" sketch:type="MSShapeGroup" fill="#262B35" d="M40,4h-4c-0.6,0-1-0.4-1-1c0-0.6,0.4-1,1-1h4c0.6,0,1,0.4,1,1
		C41,3.6,40.6,4,40,4"/>
	<path id="Fill-1481" sketch:type="MSShapeGroup" fill="#262B35" d="M44,4h-1c-0.6,0-1-0.4-1-1c0-0.6,0.4-1,1-1h1c0.6,0,1,0.4,1,1
		C45,3.6,44.6,4,44,4"/>
	<path id="Stroke-1526" sketch:type="MSShapeGroup" fill="none" stroke="#556080" stroke-width="2" stroke-linecap="round" d="
		M18.4,34.7L1,51"/>
	<path id="Fill-2247" sketch:type="MSShapeGroup" fill="#7FABDA" d="M41,26c0,7.2-5.8,13-13,13s-13-5.8-13-13c0-7.2,5.8-13,13-13
		S41,18.8,41,26L41,26z"/>
	<path id="Stroke-2248" sketch:type="MSShapeGroup" fill="none" stroke="#556080" stroke-width="2" stroke-linecap="round" d="
		M41,26c0,7.2-5.8,13-13,13s-13-5.8-13-13c0-7.2,5.8-13,13-13S41,18.8,41,26L41,26z"/>
	<path id="Fill-2247_1_" sketch:type="MSShapeGroup" fill="#7FABDA" d="M71,26c0,7.2-5.8,13-13,13s-13-5.8-13-13c0-7.2,5.8-13,13-13
		S71,18.8,71,26L71,26z"/>
	<path id="Stroke-2248_1_" sketch:type="MSShapeGroup" fill="none" stroke="#556080" stroke-width="2" stroke-linecap="round" d="
		M71,26c0,7.2-5.8,13-13,13s-13-5.8-13-13c0-7.2,5.8-13,13-13S71,18.8,71,26L71,26z"/>
</g>
<g id="_x3C_Group_x3E_1">
	<polygon fill="#556080" points="9.3,39.5 7.1,39.5 7.1,15.8 0,18.4 0,16.4 8.9,13.1 9.3,13.1 	"/>
</g>
<g id="_x3C_Group_x3E_2">
	<path fill="#556080" d="M82.6,14.3c-1-1-2.2-1.5-3.7-1.5c-1.5,0-2.7,0.5-3.7,1.5c-1,1-1.5,2.3-1.5,3.9v1.3c0,1.7,0.5,3,1.5,4
		s2.2,1.5,3.7,1.5c1.5,0,2.7-0.5,3.7-1.5c1-1,1.4-2.3,1.4-3.9v-1.3C84,16.7,83.5,15.4,82.6,14.3z"/>
	<path fill="#FFFFFF" d="M82.3,19.6c0,1.2-0.3,2.1-0.9,2.8c-0.6,0.7-1.4,1.1-2.4,1.1c-1,0-1.9-0.4-2.5-1.1c-0.6-0.7-0.9-1.6-0.9-2.8
		v-1.3c0-1.2,0.3-2.2,0.9-2.9c0.6-0.7,1.4-1.1,2.4-1.1c1,0,1.8,0.4,2.5,1.1c0.6,0.7,0.9,1.7,0.9,2.8V19.6z"/>
	<polygon fill="#556080" points="79.6,37.3 78.2,36.4 91.1,15.9 92.4,16.7 	"/>
	<path fill="#556080" d="M95.8,29.1c-1-1-2.2-1.5-3.7-1.5c-1.5,0-2.7,0.5-3.7,1.5c-1,1-1.5,2.3-1.5,3.9v1.3c0,1.6,0.5,3,1.5,4
		c1,1,2.2,1.5,3.7,1.5c1.5,0,2.7-0.5,3.7-1.5s1.5-2.3,1.5-3.9v-1.3C97.3,31.5,96.8,30.2,95.8,29.1z"/>
	<path fill="#FFFFFF" d="M95.5,34.3c0,1.2-0.3,2.1-0.9,2.9c-0.6,0.7-1.4,1.1-2.5,1.1c-1,0-1.9-0.4-2.5-1.1c-0.6-0.7-0.9-1.7-0.9-2.8
		v-1.3c0-1.2,0.3-2.1,0.9-2.9c0.6-0.7,1.4-1.1,2.5-1.1c1,0,1.9,0.4,2.5,1.1s0.9,1.6,0.9,2.8V34.3z"/>
</g>
</svg>
